<?xml version="1.0" encoding="UTF-8"?>
<svg id="Layer_5" data-name="Layer 5" xmlns="http://www.w3.org/2000/svg" viewBox="0 0 595.93 595.46">
  <defs>
    <style>
      .cls-1 {
        fill: #f3ed70;
      }

      .cls-2 {
        fill: #f3c1da;
      }
    </style>
  </defs>
  <path class="cls-1" d="M391.43,285.08s67.32,8.5,96.73-50.98c0,0-12.42,33.33,8.5,50.98s6.54,33.99,6.54,33.99c0,0-16.99,10.46-9.15,30.07s3.92,28.76,3.92,28.76c0,0-58.82-67.32-107.19-58.82s.65-33.99,.65-33.99Z"/>
  <path class="cls-1" d="M203.68,326.91s-67.32-8.5-96.73,50.98c0,0,12.42-33.33-8.5-50.98-20.92-17.65-6.54-33.99-6.54-33.99,0,0,16.99-10.46,9.15-30.07-7.84-19.61-3.92-28.76-3.92-28.76,0,0,58.82,67.32,107.19,58.82,48.37-8.5-.65,33.99-.65,33.99Z"/>
  <ellipse class="cls-1" cx="296.98" cy="307.63" rx="114.71" ry="66.34"/>
  <polygon class="cls-2" points="322.15 341.29 297.76 328.16 273.11 340.81 278.07 313.55 258.42 294.02 285.87 290.31 298.38 265.59 310.39 290.55 337.76 294.81 317.74 313.94 322.15 341.29"/>
  <path class="cls-2" d="M182.99,294c1.3,10.38,2.61,20.75,3.91,31.13l.98-.13c-2.76-9.89-4.07-20.14-3.9-30.4,.01-.64-.99-.64-1,0-.13,8.03,.63,16.07,2.28,23.92,.48,2.27,1.03,4.51,1.65,6.74,.15,.52,1.05,.44,.98-.13-1.3-10.38-2.61-20.75-3.91-31.13-.08-.63-1.08-.64-1,0h0Z"/>
  <path class="cls-2" d="M407.37,287.93c3.41,7.26,4.98,15.34,4.59,23.35-.11,2.28-.39,4.55-.82,6.8l.98,.13c.88-8.13,.27-16.41-1.79-24.33-.59-2.28-1.31-4.52-2.14-6.72-.22-.6-1.19-.34-.96,.27,2.86,7.61,4.33,15.72,4.29,23.86-.01,2.31-.15,4.62-.4,6.92-.06,.56,.88,.68,.98,.13,1.56-8.09,1.1-16.52-1.33-24.39-.69-2.23-1.55-4.41-2.54-6.53-.27-.58-1.14-.07-.86,.5h0Z"/>
</svg>