<?xml version="1.0" encoding="UTF-8"?>
<svg id="Candy" xmlns="http://www.w3.org/2000/svg" viewBox="0 0 596.11 595.53">
  <defs>
    <style>
      .cls-1 {
        fill: #f3ed70;
      }

      .cls-2 {
        fill: #f3c1da;
      }
    </style>
  </defs>
  <path class="cls-1" d="M308.58,281.58s10.86-8.42,6.55-21.16c0,0,3,6.55,8.52,6.08,5.52-.47,5.8,3.93,5.8,3.93,0,0-.94,3.93,3,5.62,3.93,1.68,4.68,3.56,4.68,3.56,0,0-18.07-1.22-23.78,6.93-5.71,8.14-4.77-4.96-4.77-4.96Z"/>
  <path class="cls-1" d="M287.68,314.46s-10.86,8.42-6.55,21.16c0,0-3-6.55-8.52-6.08s-5.8-3.93-5.8-3.93c0,0,.94-3.93-3-5.62s-4.68-3.56-4.68-3.56c0,0,18.07,1.22,23.78-6.93,5.71-8.14,4.77,4.96,4.77,4.96Z"/>
  <ellipse class="cls-1" cx="298.28" cy="298.33" rx="23.23" ry="13.44" transform="translate(-123.59 298.3) rotate(-45)"/>
  <polygon class="cls-2" points="306.7 299.55 301.33 301.16 299.61 306.5 296.42 301.89 290.81 301.91 294.21 297.44 292.46 292.11 297.75 293.97 302.28 290.66 302.16 296.27 306.7 299.55"/>
  <path class="cls-2" d="M279.72,312.99c1.67,1.3,3.35,2.6,5.02,3.9l.61-.79c-1.78-1.01-3.41-2.26-4.83-3.73-.45-.46-1.16,.24-.71,.71,1.48,1.53,3.18,2.84,5.04,3.89,.22,.12,.5,.07,.65-.13,.13-.18,.16-.5-.04-.66l-5.02-3.9c-.21-.17-.5-.21-.71,0-.17,.17-.21,.54,0,.71h0Z"/>
  <path class="cls-2" d="M311.16,280.09c1.87,.68,3.51,1.95,4.62,3.6l.79-.61c-1.36-1.69-3.12-3.05-5.09-3.95-.25-.11-.54-.07-.68,.18-.13,.21-.07,.57,.18,.68,1.91,.87,3.57,2.16,4.89,3.79,.35,.44,1.1-.14,.79-.61-1.27-1.87-3.09-3.28-5.22-4.06-.25-.09-.55,.1-.62,.35-.08,.28,.09,.52,.35,.62h0Z"/>
</svg>