<?xml version="1.0" encoding="UTF-8"?>
<svg id="Candy" xmlns="http://www.w3.org/2000/svg" viewBox="0 0 596.11 595.53">
  <defs>
    <style>
      .cls-1 {
        fill: #f3ed70;
      }

      .cls-2 {
        fill: #f3c1da;
      }
    </style>
  </defs>
  <path class="cls-1" d="M302.3,291.3s4.6-3.57,2.77-8.96c0,0,1.27,2.77,3.61,2.58s2.46,1.66,2.46,1.66c0,0-.4,1.66,1.27,2.38s1.98,1.51,1.98,1.51c0,0-7.65-.52-10.07,2.93-2.42,3.45-2.02-2.1-2.02-2.1Z"/>
  <path class="cls-1" d="M293.46,305.22s-4.6,3.57-2.77,8.96c0,0-1.27-2.77-3.61-2.58s-2.46-1.66-2.46-1.66c0,0,.4-1.66-1.27-2.38s-1.98-1.51-1.98-1.51c0,0,7.65,.52,10.07-2.93s2.02,2.1,2.02,2.1Z"/>
  <ellipse class="cls-1" cx="297.95" cy="298.39" rx="9.84" ry="5.69" transform="translate(-123.73 298.08) rotate(-45)"/>
  <polygon class="cls-2" points="301.51 298.9 299.24 299.59 298.51 301.85 297.16 299.9 294.78 299.9 296.22 298.01 295.48 295.76 297.72 296.54 299.64 295.14 299.59 297.51 301.51 298.9"/>
  <path class="cls-2" d="M289.88,304.8l2.12,1.65,.61-.79c-.19-.11-.38-.22-.56-.34s-.37-.24-.53-.38c.03,.02,.06,.05,.01,0-.02-.02-.04-.03-.06-.05-.04-.04-.09-.07-.13-.11-.08-.07-.16-.14-.24-.21-.17-.15-.33-.3-.48-.47-.18-.19-.53-.2-.71,0s-.19,.51,0,.71c.64,.66,1.39,1.24,2.19,1.69,.22,.12,.49,.07,.65-.13,.14-.18,.16-.5-.04-.66l-2.12-1.65c-.11-.09-.21-.15-.35-.15-.12,0-.27,.05-.35,.15-.16,.18-.22,.54,0,.71h0Z"/>
  <path class="cls-2" d="M303.32,290.94c.05,.02,.1,.04,.16,.06,.06,.02,0,0-.03-.01,.02,.01,.05,.02,.08,.03,.1,.04,.19,.09,.28,.14,.1,.05,.19,.11,.29,.17,.04,.03,.08,.06,.12,.09,.02,.02,.05,.03,.07,.05,.01,0,.09,.07,.03,.02-.06-.04,0,0,.02,.01,.02,.02,.04,.04,.06,.05,.04,.04,.08,.07,.13,.11,.08,.07,.15,.15,.23,.22s.14,.16,.21,.24c.01,.01,.07,.09,.02,.03s.02,.02,.02,.03c.03,.05,.07,.09,.1,.14l.79-.61c-.59-.73-1.36-1.33-2.21-1.72-.24-.11-.55-.08-.68,.18-.12,.22-.07,.57,.18,.68,.2,.09,.4,.19,.59,.31,.1,.06,.19,.12,.28,.18,.04,.03,.09,.06,.13,.09,.02,.02,.05,.03,.07,.05,.03,.02,.08,.08,0,0,.07,.07,.17,.13,.24,.2,.08,.07,.17,.15,.24,.23,.16,.16,.32,.33,.46,.51,.16,.19,.48,.18,.66,.04s.27-.44,.13-.65c-.58-.86-1.41-1.5-2.38-1.85-.25-.09-.56,.1-.62,.35-.06,.28,.09,.52,.35,.62h0Z"/>
</svg>