<?xml version="1.0" encoding="UTF-8"?>
<svg id="Coin" xmlns="http://www.w3.org/2000/svg" viewBox="0 0 596.11 595.53">
  <defs>
    <style>
      .cls-1 {
        font-family: BaskOldFace, 'Baskerville Old Face';
        font-size: 40px;
      }

      .cls-1, .cls-2 {
        fill: #a89741;
      }

      .cls-3 {
        fill: #d6c457;
      }
    </style>
  </defs>
  <circle class="cls-3" cx="297" cy="293.36" r="90"/>
  <text class="cls-1" transform="translate(247.77 337.79)"><tspan x="0" y="0">COIN</tspan></text>
  <polygon class="cls-2" points="298.61 234.39 303.64 251.45 317.73 240.6 311.77 257.36 329.55 256.87 314.88 266.92 329.55 276.97 311.77 276.48 317.73 293.24 303.64 282.39 298.61 299.45 293.58 282.39 279.49 293.24 285.45 276.48 267.67 276.97 282.34 266.92 267.67 256.87 285.45 257.36 279.49 240.6 293.58 251.45 298.61 234.39"/>
  <path class="cls-2" d="M297.38,213.32c43.99,0,79.66,35.66,79.66,79.66s-35.66,79.66-79.66,79.66-79.66-35.66-79.66-79.66,35.66-79.66,79.66-79.66m0-5c-46.68,0-84.66,37.98-84.66,84.66s37.98,84.66,84.66,84.66,84.66-37.98,84.66-84.66-37.98-84.66-84.66-84.66h0Z"/>
</svg>