<?xml version="1.0" encoding="UTF-8"?>
<svg xmlns="http://www.w3.org/2000/svg" viewBox="0 0 596.11 595.53">
  <defs>
    <style>
      .cls-1 {
        fill: #8bd6f0;
      }

      .cls-1, .cls-2, .cls-3, .cls-4, .cls-5, .cls-6, .cls-7, .cls-8, .cls-9, .cls-10, .cls-11 {
        stroke-miterlimit: 10;
      }

      .cls-1, .cls-7, .cls-11 {
        stroke: #6fceeb;
      }

      .cls-12 {
        fill: #e9bad5;
      }

      .cls-13 {
        fill: #fff;
      }

      .cls-2 {
        stroke: #edbed9;
      }

      .cls-2, .cls-8, .cls-10, .cls-11 {
        fill: none;
      }

      .cls-3 {
        stroke: #000;
      }

      .cls-14 {
        fill: #eabbd6;
      }

      .cls-4 {
        stroke: #231f20;
      }

      .cls-4, .cls-15 {
        fill: #231f20;
      }

      .cls-5 {
        stroke: #eabbd6;
      }

      .cls-5, .cls-16 {
        fill: #f5cde1;
      }

      .cls-6 {
        fill: #f2e3f0;
      }

      .cls-6, .cls-10 {
        stroke: #ecbdd8;
      }

      .cls-17 {
        fill: #a5c3e6;
      }

      .cls-18 {
        fill: #edbed9;
      }

      .cls-19 {
        fill: #6fceeb;
      }

      .cls-20 {
        fill: #7bc142;
      }

      .cls-7, .cls-21 {
        fill: #89d6f2;
      }

      .cls-8 {
        stroke: #ebbcd7;
      }

      .cls-22 {
        fill: #f6cde1;
      }

      .cls-9 {
        fill: #8ad6f1;
        stroke: #6eceeb;
      }

      .cls-23 {
        fill: #70ceeb;
      }
    </style>
  </defs>
  <g id="Rainbowland">
    <rect class="cls-20" y="382.59" width="595.28" height="212.87"/>
    <rect class="cls-17" x=".65" width="595.28" height="382.4"/>
  </g>
  <g id="Unicorn_2" data-name="Unicorn 2">
    <path class="cls-22" d="M527.94,404.81s3.32-6.38,10.47,1.53c0,0,5.62,7.91-2.04,19.15,0,0-5.36,13.02,2.81,22.21s18.38,2.04,18.38,2.04c0,0,4.6-5.11,2.81-10.98,0,0-2.04,7.66-9.19,4.34,0,0-6.13-4.34-4.34-13.28,0,0,5.62-18.43,5.11-26.96-.22-3.65-2.23-11.99-8.68-15.55-8.63-4.77-24.89-2.43-24.13,10.72"/>
    <path class="cls-22" d="M519.13,398.04s-1.66,.51-2.68-.13c0,0,.25-6.2-2.81-10.09-2.63-3.34-8.04-4.59-14.3-2.94,0,0-3.32,0-6.89-13.79s-11.23-7.66-11.23-7.66c0,0,0-7.91-8.17-9.19,0,0,3.06-25.87-15.32-25.45,0,0-5.36-28.43-30.64-20.26,0,0-2.3-6.64-9.96-10.72,0,0-2.81-2.3-6.64-6.89,0,0-2.04,.51-6.89,6.89s-3.32,3.57-5.11,9.19c0,0-1.53-1.53-4.09-1.02,0,0,5.36-4.6-4.6-9.7s-13.28-8.68-13.28-8.68c0,0,.26,5.62-1.28,10.21s-1.53,8.68,0,12.51c0,0-1.53-.77-3.32,0,0,0-2.04-7.15-8.17-9.45,0,0,.51-6.89-7.66-9.45,0,0-.26-6.13-7.15-9.19,0,0-7.66-12.26-12.51-10.98s4.6,16.85,4.6,16.85c0,0,2.55,7.15,6.13,8.17,0,0,3.83,11.23,8.43,12,0,0,1.53,11.49,7.66,14.04,0,0,0,5.28,3.83,6.47,0,0-9.53,11.57-11.91,26.21,0,0-2.72,5.45-7.49,7.83s-8.51,8.85-8.51,8.85c0,0-5.11,16,13.96,23.15,0,0,12.94,2.04,22.81-9.87,0,0,.68-2.38,3.74-2.38s12.94,2.38,20.09,0c0,0,8.51-1.02,12.26-2.72,0,0,4.33,7.83-2.94,25.19s2.94,35.4,2.94,35.4c0,0,5.11,7.83,12.94,9.19,0,0,4.68,14.89,1.62,23.83,0,0,1.79,5.62,12.77,0,0,0,4.09,7.91,17.87-.26,0,0,6.13-14.04,4.85-24.77,0,0,14.04,4.09,19.66,.26,0,0-.51,1.02,3.32,1.79s5.62,1.53,5.62,1.53c0,0,1.28,3.83,0,8.43s.57,9.19,.57,9.19c0,0,3.01,1.79,7.86-.26,0,0,3.32-9.7,5.36-17.62,0,0,4.34,2.3,8.94,1.53s1.28,7.66,1.28,7.66c0,0-2.55,4.85-1.28,10.47,0,0,6.89,2.04,13.53-1.79l4.34-25.53s0-3.06-3.83-3.06-3.32-4.34-3.32-4.34c0,0,8.68-19.15,3.83-31.91"/>
    <circle class="cls-15" cx="377.91" cy="351.13" r="9.64"/>
    <circle class="cls-13" cx="375.06" cy="350.04" r="3.57"/>
    <path class="cls-6" d="M336.45,271.27s-5.41,.6,4.6,16.85c0,0,1.79,6.13,6.13,8.17,0,0,3.91,11.32,8.43,12,0,0,1.62,11.49,7.66,14.04,.43,0-.85,4.26,3.83,6.47,4.68,2.21,12.77-13.02,12.77-13.02,0,0-3.66-2.13-4.6-5.45,0,0-2.13-.94-3.32,0,0,0-2.47-7.4-8.17-9.45,0,0,.34-7.06-7.66-9.45,0,0-.51-6.21-7.15-9.19,0,0-7.74-12.17-12.51-10.98Z"/>
    <path class="cls-2" d="M367.09,328.81s-9.53,11.57-11.91,26.21c0,0-2.72,5.45-7.49,7.83s-8.51,8.85-8.51,8.85c0,0-5.11,16,13.96,23.15,0,0,12.94,2.04,22.81-9.87,0,0,.68-2.38,3.74-2.38s12.94,2.38,20.09,0c0,0,8.51-1.02,12.26-2.72,0,0,4.33,7.83-2.94,25.19s2.94,35.4,2.94,35.4c0,0,5.11,7.83,12.94,9.19,0,0,4.68,14.89,1.62,23.83,0,0,1.79,5.62,12.77,0,0,0,4.09,7.91,17.87-.26,0,0,6.13-14.04,4.85-24.77,0,0,13.79,3.23,19.66,.26,0,0-.51,1.02,3.32,1.79s5.62,1.53,5.62,1.53c0,0,1.28,3.83,0,8.43s.57,9.19,.57,9.19c0,0,3.01,1.79,7.86-.26,0,0,3.32-9.7,5.36-17.62,0,0,4.34,2.3,8.94,1.53s1.28,7.66,1.28,7.66c0,0-2.55,4.85-1.28,10.47,0,0,6.89,2.04,13.53-1.79l4.34-25.53s0-3.06-3.83-3.06-3.32-4.34-3.32-4.34c0,0,8.68-19.15,3.83-31.91,0,0,3.32-6.38,10.47,1.53,0,0,4.85,7.47-2.04,19.15,0,0-5.36,13.02,2.81,22.21s18.38,2.04,18.38,2.04c0,0,4.6-5.11,2.81-10.98,0,0-2.04,7.66-9.19,4.34,0,0-6.13-4.34-4.34-13.28,0,0,5.62-18.43,5.11-26.96-.22-3.65-2.23-11.99-8.68-15.55-8.63-4.77-24.89-2.43-24.13,10.72,0,0-1.66,.51-2.68-.13,0,0,.25-6.2-2.81-10.09-2.63-3.34-8.04-4.59-14.3-2.94,0,0-3.32,0-6.89-13.79s-11.23-7.66-11.23-7.66c0,0,0-7.91-8.17-9.19,0,0,3.06-25.87-15.32-25.45,0,0-5.36-28.43-30.64-20.26,0,0-2.3-6.64-9.96-10.72,0,0-2.81-2.3-6.64-6.89,0,0-2.06,.5-6.89,6.89-4.87,6.44-5.11,9.22-5.11,9.19,0,0-1.53-1.53-4.09-1.02,0,0,5.36-4.6-4.6-9.7s-13.28-8.68-13.28-8.68c0,0,.26,5.62-1.28,10.21s-1.53,8.68,0,12.51c0,0-1.53-.77-3.32,0,0,0-2.04-7.15-8.17-9.45,0,0,.51-6.89-7.66-9.45,0,0-.26-6.13-7.15-9.19,0,0-7.66-12.26-12.51-10.98s4.6,16.85,4.6,16.85c0,0,2.55,7.15,6.13,8.17,0,0,3.83,11.23,8.43,12,0,0,1.53,11.49,7.66,14.04,0,0,0,5.28,3.83,6.47Z"/>
    <path class="cls-7" d="M398.49,307.02s-1.74,5.83,0,8.85c0,0-1.23,6.89-7.28,6.81,0,0,4.17,11.45-4.85,13.19,0,0-11.27,2.19-9.57-14.99,0,0,3.7-9.65,17.61-14.88,0,0,2.43-.64,4.09,1.02Z"/>
    <path class="cls-21" d="M519.13,398.04s-1.02-18.38,24.13-10.72c0,0,16.47,5.87,3.57,42.51,0,0-1.91,9.06,4.34,13.28s9.19-4.34,9.19-4.34c0,0,1.91,6.13-2.81,10.98s-15.46,2.51-18.38-2.04-6.73-12.3-2.81-22.21,5.62-8.17,2.04-19.15c0,0-6.51-7.79-10.47-1.53,0,0-1.15-4.85-8.81-6.77Z"/>
    <path class="cls-7" d="M427.09,308.55s23.74-9.28,30.64,20.26c0,0,16.6-2.89,15.32,25.45,0,0,7.66,.51,8.17,9.19,0,0,8.02-7.21,12.18,11.01,0,0,2.63,9.92,5.95,10.43,0,0,17.36-5.36,17.11,13.02,0,0-7.79,25.79-29.23,3.45,0,0-4.85,20.94-22.09,5.49,0,0-1.79,3.19-4.09,1.79,0,0-6.13,12.64-22.09,5.36,0,0-8.3-2.94-9.32-12.64,0,0-17.23-5.62-.77-38.17,0,0-1.15-5.23,0-9.45s6.13-23.87-8.81-26.68c0,0,9.83-8.17,7.02-18.51Z"/>
    <path class="cls-11" d="M527.93,404.81s3.32-6.38,10.47,1.53c0,0,4.81,7.62-2.04,19.15,0,0-5.36,13.02,2.81,22.21,7.22,8.12,16.04,3.48,17.99,2.29,.27-.16,.5-.37,.69-.62,.99-1.26,4.02-5.67,2.51-10.62,0,0-2.04,7.66-9.19,4.34,0,0-6.13-4.34-4.34-13.28,0,0,5.62-18.43,5.11-26.96-.22-3.65-2.23-11.99-8.68-15.55-8.63-4.77-24.89-2.43-24.13,10.72"/>
    <path class="cls-19" d="M524.1,398.77c2.36-3.78,7.48-5.05,11.57-3.67,4.53,1.53,7.63,5.9,8.76,10.4,1.48,5.92-.08,11.82-1.89,17.47-1.53,4.78-2.84,10.02-1.51,15.02,.62,2.32,2.09,4.39,4.09,5.73,2.3,1.54,5.01,1.64,7.51,.52,.59-.26,.08-1.13-.5-.86-2.43,1.09-5.04,.73-7.09-.96-1.75-1.44-2.82-3.38-3.24-5.59-1.04-5.45,.83-10.69,2.42-15.82,1.7-5.47,2.66-11.49,.81-17.05-1.44-4.32-4.61-8.26-9-9.79s-10.18-.07-12.78,4.1c-.34,.55,.52,1.05,.86,.5h0Z"/>
    <path class="cls-19" d="M391.57,322.32c-.78-.86-1.72-1.61-2.8-2.06s-2.09-.43-3.13-.04c-1.93,.73-3.78,2.59-2.8,4.77,.5,1.11,1.54,1.98,2.69,2.36,.61,.2,.87-.76,.27-.96-.99-.33-1.92-1.18-2.19-2.21s.52-1.96,1.33-2.49c.87-.57,1.95-.95,2.98-.67,1.16,.32,2.15,1.14,2.94,2.01,.43,.48,1.14-.23,.71-.71h0Z"/>
    <path class="cls-19" d="M420.64,327.22c2.68-1.13,5.92-1.99,8.84-1.55s5.81,2.86,7.28,5.46c1.83,3.25,1.93,7.16,1.31,10.76s-1.79,7.26-3.28,10.64c-1.62,3.69-3.7,7.2-6.28,10.31-.41,.49,.3,1.2,.71,.71,4.92-5.94,8.3-13.35,9.73-20.92,.71-3.75,.72-7.75-.95-11.27-1.4-2.95-4.1-5.4-7.22-6.41-1.66-.54-3.5-.41-5.19-.15-1.78,.27-3.55,.76-5.21,1.46-.58,.25-.33,1.21,.27,.96h0Z"/>
    <path class="cls-19" d="M438.96,336.82c2.34-.53,3.82,1.83,4.63,3.62,1,2.2,1.67,4.55,2.07,6.92,.8,4.76,.45,9.68-.69,14.35s-3.04,9.11-5.34,13.31-5.28,8.22-7.4,12.61c-1.06,2.18-1.96,4.47-2.58,6.82s-.96,4.7-.49,7.04c.13,.63,1.09,.36,.96-.27-.45-2.23-.05-4.55,.54-6.71s1.47-4.4,2.48-6.48c2.2-4.52,5.24-8.57,7.62-13,4.62-8.61,7.56-18.45,5.81-28.26-.47-2.62-1.27-5.22-2.47-7.59-1.02-2-2.96-3.87-5.4-3.32-.63,.14-.36,1.11,.27,.96h0Z"/>
    <path class="cls-19" d="M457.24,328.94c1.45,6.32,1.76,12.82,.74,19.23s-3.08,12.38-5.34,18.31c-1.13,2.96-2.33,5.9-3.54,8.83s-2.37,5.78-3.22,8.79c-1.45,5.16-1.77,10.83,.62,15.78,1.27,2.63,3.32,4.73,5.85,6.16s5.63,2.3,8.55,3.08c.62,.16,.89-.8,.27-.96-5.14-1.36-10.58-3-13.37-7.93s-2.41-10.59-.99-15.74c.81-2.94,1.96-5.77,3.11-8.58s2.35-5.71,3.46-8.6c2.23-5.81,4.3-11.77,5.39-17.92,1.23-6.9,.98-13.89-.58-20.71-.14-.63-1.11-.36-.96,.27h0Z"/>
    <path class="cls-19" d="M472.45,354.13c-.16,7.14-3.04,13.78-5.23,20.47s-3.18,13.57-3.25,20.57c-.04,3.9,.2,7.81,.66,11.68,.08,.63,1.08,.64,1,0-.83-6.98-.96-14.1,0-21.08,.47-3.41,1.23-6.76,2.27-10.04,1.08-3.41,2.36-6.76,3.42-10.18,1.15-3.71,2.03-7.53,2.12-11.43,.01-.64-.99-.64-1,0h0Z"/>
    <path class="cls-19" d="M480.73,363.58c1.43,5.59,.91,11.36,.68,17.05-.19,4.83,.1,9.69,1.71,14.29,.86,2.46,2.07,4.78,3.73,6.79,.41,.5,1.11-.21,.71-.71-2.97-3.62-4.41-8.31-4.96-12.9-.61-5.17,.08-10.36,.1-15.55,0-3.11-.24-6.23-1.01-9.25-.16-.62-1.12-.36-.96,.27h0Z"/>
    <path class="cls-19" d="M504.7,383.69c-3.93,.49-6.69,4.65-6.5,8.43,.1,2.01,.87,4.06,2.29,5.52,1.29,1.33,3.29,2.07,5.1,1.42s2.92-2.82,2.07-4.67c-.27-.58-1.13-.08-.86,.5,.39,.85,.13,1.86-.48,2.54-.64,.71-1.65,.95-2.58,.84-2.12-.26-3.55-2.22-4.15-4.12s-.5-4.17,.55-5.98c.95-1.64,2.61-3.23,4.57-3.47,.63-.08,.64-1.08,0-1h0Z"/>
    <path class="cls-18" d="M376.37,385.23c1.77-3.7,1.74-8.08,.57-11.96-.18-.61-1.15-.35-.96,.27,1.08,3.61,1.17,7.74-.47,11.19-.28,.58,.59,1.09,.86,.5h0Z"/>
    <path class="cls-18" d="M441.32,467.03c.22-7.12-.74-14.25-2.82-21.06-.19-.61-1.15-.35-.96,.27,2.06,6.73,3,13.76,2.79,20.79-.02,.64,.98,.64,1,0h0Z"/>
    <path class="cls-3" d="M427.61,466.59s-.19,3.72-1.03,6.89c0,0,1.19,5.7,12.77,0,0,0,4.09,8.17,17.87-.26l3.01-8.76s-9.65,7.48-19.44,2.88c0,0-8.91,4.09-13.18-.76Z"/>
    <path class="cls-3" d="M490.47,461.95s-.77,3.85,.76,7.83c0,0,3.26,1.67,7.86-.22l2.34-7.33s-5.93,2.4-10.95-.28Z"/>
    <path class="cls-3" d="M513.91,462.83s-1.47,4.45-.53,8.62c0,0,7.32,2.04,13.53-1.79l1.26-7.41s-7.18,4.3-14.26,.58Z"/>
    <path class="cls-18" d="M504.58,451.3c-3.36-1.39-6.22-3.84-8.53-6.62s-4.18-6.27-5.03-9.95c-.49-2.13-.66-4.32-.54-6.51,.04-.64-.96-.64-1,0-.46,8.01,3.3,15.69,9.44,20.76,1.64,1.35,3.43,2.47,5.39,3.29,.59,.25,.85-.72,.27-.96h0Z"/>
    <path class="cls-18" d="M481.98,449.15c4.15-1.93,7.71-4.89,10.51-8.5,.39-.5-.31-1.22-.71-.71-2.75,3.55-6.22,6.45-10.3,8.35-.58,.27-.08,1.13,.5,.86h0Z"/>
    <path class="cls-18" d="M412.27,380.3c3.22-1.97,6.64-4.08,8.67-7.37,1.83-2.96,2.39-7.02,.32-10-.37-.52-1.23-.03-.86,.5,1.96,2.81,1.29,6.6-.53,9.31-1.98,2.95-5.14,4.86-8.11,6.69-.55,.34-.05,1.2,.5,.86h0Z"/>
    <path class="cls-18" d="M372.77,373.53c2.36,.54,4.94-.24,6.56-2.05,.43-.48-.28-1.19-.71-.71-1.38,1.54-3.56,2.26-5.59,1.8-.63-.14-.89,.82-.27,.96h0Z"/>
    <circle class="cls-18" cx="349.04" cy="376.64" r="1.7"/>
    <path class="cls-18" d="M462.65,448.55c-2.17-5.51-3.67-11.28-4.42-17.16-.08-.63-1.08-.64-1,0,.76,5.97,2.25,11.82,4.46,17.42,.23,.59,1.2,.33,.96-.27h0Z"/>
  </g>
  <g id="Unicorn_1" data-name="Unicorn 1">
    <path class="cls-9" d="M99.51,470.43s-7.79,.26-10.47-2.67c0,0-.26-2.55,1.79-3.83,0,0-8.17,1.53-12-3.06,0,0,3.96,0,4.98-2.55,0,0-10.47-3.83-8.68-10.47,0,0,2.68-.64,3.57,0,0,0-5.36-5.74,6.26-13.66,0,0-1.91,6.38,3.45,11.36,0,0,1.66-4.98,4.34-7.53,0,0,3.96,16.34,11.74,16.72s-4.98,15.69-4.98,15.69Z"/>
    <path class="cls-16" d="M119.68,431.1s-24.51,23.23-22.47,41.36c0,0-13.53,14.55-22.47,13.28,0,0-14.3,.26-20.68,9.7,0,0-2.81,11.49,7.4,18.38,0,0,8.43,4.09,15.83-1.28,0,0,30.13-6.38,35.74-12.51,0,0,4.34,9.62,3.32,15.28,0,0,2.3,9.74,13.53,8.21s4.6,1.53,14.29-4.85c0,0,4.35,5.69,13.29,5.01,0,0,12.51,2.65,14.55-11.4s2.3-12.51,2.3-12.51c0,0,21.96,13.53,32.17,12,0,0,12,6.64,17.62,3.32s11.23-6.64,10.21-19.66c0,0-7.91-10.47-16.34-9.45s-23.23-7.15-27.32-14.04,3.83-16.09-23.49-42.64-47.49,1.79-47.49,1.79Z"/>
    <path class="cls-8" d="M119.79,431.1s-24.51,23.23-22.47,41.36c0,0-13.53,14.55-22.47,13.28,0,0-14.3,.26-20.68,9.7,0,0-2.81,11.49,7.4,18.38,0,0,8.43,4.09,15.83-1.28,0,0,30.13-6.38,35.74-12.51,0,0,4.34,9.62,3.32,15.28,0,0,2.2,7.84,13.53,8.21s14.29-4.85,14.29-4.85c0,0,4.35,5.69,13.29,5.01,0,0,12.51,2.65,14.55-11.4s2.3-12.51,2.3-12.51c0,0,21.96,13.53,32.17,12,0,0,12,6.64,17.62,3.32s11.23-6.64,10.21-19.66c0,0-7.91-10.47-16.34-9.45s-23.23-7.15-27.32-14.04,3.83-16.09-23.49-42.64-47.49,1.79-47.49,1.79Z"/>
    <path class="cls-16" d="M138.25,323.36s-23.8-6.89-31.2,5.36c0,0-2.81-16.6-10.21-20.68,0,0-.77,10.98-8.17,19.15,0,0-10.72,22.21,8.17,25.02,0,0-22.47,63.83,19.91,82.72,0,0,39.83,9.19,62.55-7.4s14.04-51.06,14.04-51.06c0,0-6.38-23.23-12.26-31.4,0,0,16.34-9.19,2.81-28.85,0,0-9.45-8.94-5.62-15.06,0,0-12.77,2.3-13.02,22.98,0,0-13.93-9.96-27.01-.77Z"/>
    <path class="cls-10" d="M138.12,323.36s-23.8-6.89-31.2,5.36c0,0-2.81-16.6-10.21-20.68,0,0-.77,10.98-8.17,19.15,0,0-10.72,22.21,8.17,25.02,0,0-22.47,63.83,19.91,82.72,0,0,39.83,9.19,62.55-7.4s14.04-51.06,14.04-51.06c0,0-6.38-23.23-12.26-31.4,0,0,16.34-9.19,2.81-28.85,0,0-9.45-8.94-5.62-15.06,0,0-12.77,2.3-13.02,22.98,0,0-13.93-9.96-27.01-.77Z"/>
    <path class="cls-23" d="M111.34,363.22c-4.01,.73-7.74,2.65-10.78,5.36-.98,.87-.96,2.66,0,3.54,1.05,.96,2.49,.93,3.54,0,.32-.28,.67-.54,.98-.82-.09,.08-.39,.29-.12,.1,.11-.08,.22-.16,.32-.24,.17-.12,.35-.25,.53-.36,.73-.49,1.5-.93,2.29-1.31,.19-.09,.39-.18,.58-.27,.1-.04,.2-.08,.29-.13-.11,.05-.46,.19-.15,.07,.4-.15,.8-.3,1.21-.44,.86-.28,1.75-.5,2.64-.66,1.29-.23,2.14-1.87,1.75-3.08-.45-1.38-1.69-2-3.08-1.75h0Z"/>
    <path class="cls-23" d="M168.84,362.72c1.06-.09,2.11-.06,3.17,.07l-.66-.09c.92,.13,1.84,.33,2.72,.62,.22,.07,.43,.15,.64,.23,.09,.04,.19,.07,.28,.11,.42,.16-.39-.18-.11-.05,.43,.2,.86,.41,1.28,.65,1.14,.64,2.78,.31,3.42-.9s.32-2.74-.9-3.42c-2.97-1.67-6.44-2.49-9.84-2.22-.67,.05-1.28,.24-1.77,.73-.43,.43-.76,1.15-.73,1.77,.06,1.26,1.1,2.61,2.5,2.5h0Z"/>
    <path class="cls-1" d="M138.12,323.36s13.14-8.85,27.01,.77c0,0,8.26,6.89,0,15.23,0,0-3.13,14.98,3.67,18.89,0,0-10.22,2.21-12.09-4.94,0,0-2.04,20.26-15.66,18.55,0,0,5.96-3.4,5.79-19.23,0,0-3.26,12.94-20.43,14.13,0,0-5.96,.33-11.23,2.55,0,0,3.91-4.59,8.34-7.14s7.15-9.36,7.15-9.36c0,0-6.13,6.47-17.87,6.13s-14.47,1.81-14.78,2.02c0,0-.01,0,0,0,.34-.55,6.49-7.83,12.58-10.7,10.06-4.74-1.17-12.47-1.17-12.47,0,0-4.45-3.87-2.49-9.06s15.52-10.3,31.2-5.36Z"/>
    <path class="cls-6" d="M136.65,264.83s-3.19-.96-3.7,15.38c0,0-3.04,6.96-.64,11.11,0,0-4.33,11.72-1.01,14.85,0,0-3.18,5.67-1.68,12.15,0,.04,.04,.08,.04,.13,.04,.72-3.08,6.83-.6,11.12,2.59,4.48,15.2,5.13,17.91,1.38s.09-11.29-2.02-13.2c0,0,.8-8.08-2.72-13.01,0,0,2.97-5.63-.91-12.13,0,0,3.12-5.4-.64-11.63,0,0,.57-14.41-4.03-16.15Z"/>
    <ellipse class="cls-15" cx="112.53" cy="386.93" rx="7.4" ry="11.74" transform="translate(-55.74 20.79) rotate(-8.47)"/>
    <ellipse class="cls-15" cx="172.02" cy="382.59" rx="7.4" ry="11.74"/>
    <ellipse class="cls-13" cx="113.62" cy="383.94" rx="2.78" ry="5.23" transform="translate(-55.29 20.91) rotate(-8.47)"/>
    <ellipse class="cls-13" cx="170.27" cy="379.78" rx="2.78" ry="5.23"/>
    <path class="cls-5" d="M129.77,402.13s8.94-5.23,28.98-2.55c0,0,16.98-3.7,11.52,16.09,0,0,6.99,21.13-9.1,23.74-16.17,2.63-28.32,2.92-28.34,2.55,0,0-12.26,1.28-12.13-19.91,0,0-12.13-19.15,9.06-19.91Z"/>
    <path class="cls-14" d="M132.16,408.78c-.99-.5-2.05-.63-3.14-.39-.95,.2-1.9,.76-2.55,1.5-1.32,1.5-1.88,3.77-1.19,5.68,.13,.37,.34,.69,.69,.9,.32,.19,.8,.27,1.16,.15,.72-.23,1.33-1.06,1.05-1.85-.09-.25-.16-.51-.2-.78l.05,.4c-.05-.4-.05-.8,0-1.2l-.05,.4c.03-.2,.07-.4,.12-.6,.03-.1,.06-.19,.09-.29,.02-.05,.03-.1,.05-.14,.06-.14,.04-.09-.06,.15,.09-.15,.15-.32,.24-.47,.05-.09,.11-.17,.16-.25,.14-.21-.26,.3,0,.01,.14-.15,.3-.28,.44-.42-.27,.28-.18,.14-.06,.06,.08-.06,.17-.11,.25-.16s.18-.08,.26-.13c-.25,.1-.3,.12-.16,.07,.05-.02,.09-.03,.14-.05,.18-.06,.37-.1,.56-.13l-.4,.05c.28-.04,.56-.04,.84,0l-.4-.05c.15,.02,.3,.05,.44,.09,.07,.02,.13,.04,.2,.07,.11,.04,.04,.01-.2-.08,.04,.02,.08,.04,.13,.06,.7,.35,1.66,.21,2.05-.54,.36-.68,.21-1.68-.54-2.05h0Z"/>
    <path class="cls-14" d="M158.38,408.38s.5-.31,.51-.29c0,0-.35,.13-.04,.02,.08-.03,.15-.05,.23-.08,.09-.03,.19-.05,.29-.07,.05-.01,.1-.02,.14-.03,.12-.02,.06-.01-.16,.02,.07,.04,.4-.03,.49-.03,.1,0,.2,0,.29,0,.05,0,.1,0,.15,.01,.12,.01,.07,0-.16-.02,.03,.04,.41,.09,.48,.1,.09,.03,.19,.06,.28,.09,.32,.1-.29-.15,0,0,.16,.08,.31,.16,.46,.26,.05,.03,.13,.12,.19,.13-.17-.13-.21-.16-.12-.09,.04,.03,.07,.06,.1,.09,.12,.11,.24,.24,.35,.36,.15,.18,.01,.06-.03-.05,.03,.07,.11,.16,.16,.23,.09,.14,.17,.29,.25,.44,.1,.22,0,.06-.02-.06,.01,.08,.07,.18,.09,.26,.05,.16,.09,.33,.12,.49,.05,.25-.02,.04,0-.08,0,.08,.02,.19,.02,.28,0,.18,0,.37-.02,.55-.08,.78,.74,1.53,1.5,1.5,.88-.04,1.42-.66,1.5-1.5,.2-2.03-.89-4.04-2.56-5.15-1.76-1.16-4.25-1.13-6.01,0-.66,.42-.99,1.35-.54,2.05,.43,.66,1.35,.99,2.05,.54h0Z"/>
    <path class="cls-14" d="M127.85,428.54c4.2,3.27,9.62,3.88,14.78,3.56,2.83-.18,5.67-.53,8.47-.93,2.64-.37,5.27-.9,7.73-1.95s4.64-2.62,6.21-4.79c.38-.52-.49-1.02-.86-.5-2.86,3.96-7.8,5.43-12.41,6.15-2.66,.41-5.35,.73-8.04,.95s-5.28,.28-7.88-.17-5.19-1.38-7.3-3.02c-.5-.39-1.21,.31-.71,.71h0Z"/>
    <path class="cls-4" d="M72.55,485.93s-14.32,1.35-18.38,9.52,5.25,17.61,7.4,18.38,7.64,3.96,15.83-1.28,5.85-21.21-4.85-26.62Z"/>
    <path class="cls-4" d="M218.08,486s9.42-.64,16.34,9.45c0,0,2.4,14.55-10.21,19.66,0,0-6.53,4.34-17.62-3.32,0,0-6.92-20.17,11.49-25.79Z"/>
    <path class="cls-12" d="M144.78,510.51c0-14.5,0-29,0-43.5v-12.25c0-.64-1-.64-1,0,0,14.5,0,29,0,43.5v12.25c0,.64,1,.64,1,0h0Z"/>
    <path class="cls-4" d="M116.13,509.16s.53,3.64,.34,6.15c0,0,2.06,8.13,13.53,8.21s14.29-4.85,14.29-4.85c0,0,2.71,5.47,13.31,5.39,0,0,9.12,1.39,12.89-6.1,0,0,1.18-1.66,1.84-7.06,0,0-16.41,4.53-28.15,.36,0,0-10.36,3.78-28.05-2.11Z"/>
    <path class="cls-14" d="M113.63,499.91c-1.89-10.62-2.08-21.45-1.37-32.19,.21-3.2,.51-6.39,.85-9.58,.07-.64-.93-.63-1,0-1.2,11-1.73,22.12-.67,33.15,.29,2.98,.69,5.94,1.22,8.88,.11,.63,1.08,.36,.96-.27h0Z"/>
    <path class="cls-12" d="M174.91,499.92c.8-3.69,1.7-7.35,2.11-11.11,.29-2.67,.43-5.35,.53-8.03,.14-3.83,.2-7.66,0-11.49-.22-4.3-.76-8.58-1.72-12.77-.14-.63-1.11-.36-.96,.27,1.71,7.43,1.97,15.05,1.73,22.64-.15,4.72-.38,9.46-1.3,14.1-.41,2.05-.9,4.09-1.35,6.13-.14,.63,.83,.9,.96,.27h0Z"/>
  </g>
</svg>