<?xml version="1.0" encoding="UTF-8"?>
<svg xmlns="http://www.w3.org/2000/svg" viewBox="0 0 595.93 595.46">
  <defs>
    <style>
      .cls-1 {
        fill: #8bd6f0;
        stroke: #6fceeb;
      }

      .cls-1, .cls-2, .cls-3, .cls-4, .cls-5, .cls-6, .cls-7 {
        stroke-miterlimit: 10;
      }

      .cls-8 {
        fill: #e9bad5;
      }

      .cls-9 {
        fill: #fff;
      }

      .cls-10 {
        fill: #eabbd6;
      }

      .cls-2 {
        stroke: #231f20;
      }

      .cls-2, .cls-11 {
        fill: #231f20;
      }

      .cls-3 {
        stroke: #eabbd6;
      }

      .cls-3, .cls-12 {
        fill: #f5cde1;
      }

      .cls-4 {
        fill: #f2e3f0;
      }

      .cls-4, .cls-7 {
        stroke: #ecbdd8;
      }

      .cls-13 {
        fill: #a5c3e6;
      }

      .cls-14 {
        fill: #7bc142;
      }

      .cls-5 {
        stroke: #ebbcd7;
      }

      .cls-5, .cls-7 {
        fill: none;
      }

      .cls-6 {
        fill: #8ad6f1;
        stroke: #6eceeb;
      }

      .cls-15 {
        fill: #70ceeb;
      }
    </style>
  </defs>
  <g id="Rainbowland">
    <rect class="cls-14" y="382.59" width="595.28" height="212.87"/>
    <rect class="cls-13" x=".65" width="595.28" height="382.4"/>
  </g>
  <g id="Unicorn_1" data-name="Unicorn 1">
    <path class="cls-6" d="M99.51,470.43s-7.79,.26-10.47-2.67c0,0-.26-2.55,1.79-3.83,0,0-8.17,1.53-12-3.06,0,0,3.96,0,4.98-2.55,0,0-10.47-3.83-8.68-10.47,0,0,2.68-.64,3.57,0,0,0-5.36-5.74,6.26-13.66,0,0-1.91,6.38,3.45,11.36,0,0,1.66-4.98,4.34-7.53,0,0,3.96,16.34,11.74,16.72s-4.98,15.69-4.98,15.69Z"/>
    <path class="cls-12" d="M119.68,431.1s-24.51,23.23-22.47,41.36c0,0-13.53,14.55-22.47,13.28,0,0-14.3,.26-20.68,9.7,0,0-2.81,11.49,7.4,18.38,0,0,8.43,4.09,15.83-1.28,0,0,30.13-6.38,35.74-12.51,0,0,4.34,9.62,3.32,15.28,0,0,2.3,9.74,13.53,8.21s4.6,1.53,14.29-4.85c0,0,4.35,5.69,13.29,5.01,0,0,12.51,2.65,14.55-11.4s2.3-12.51,2.3-12.51c0,0,21.96,13.53,32.17,12,0,0,12,6.64,17.62,3.32s11.23-6.64,10.21-19.66c0,0-7.91-10.47-16.34-9.45s-23.23-7.15-27.32-14.04,3.83-16.09-23.49-42.64-47.49,1.79-47.49,1.79Z"/>
    <path class="cls-5" d="M119.79,431.1s-24.51,23.23-22.47,41.36c0,0-13.53,14.55-22.47,13.28,0,0-14.3,.26-20.68,9.7,0,0-2.81,11.49,7.4,18.38,0,0,8.43,4.09,15.83-1.28,0,0,30.13-6.38,35.74-12.51,0,0,4.34,9.62,3.32,15.28,0,0,2.2,7.84,13.53,8.21s14.29-4.85,14.29-4.85c0,0,4.35,5.69,13.29,5.01,0,0,12.51,2.65,14.55-11.4s2.3-12.51,2.3-12.51c0,0,21.96,13.53,32.17,12,0,0,12,6.64,17.62,3.32s11.23-6.64,10.21-19.66c0,0-7.91-10.47-16.34-9.45s-23.23-7.15-27.32-14.04,3.83-16.09-23.49-42.64-47.49,1.79-47.49,1.79Z"/>
    <path class="cls-12" d="M138.25,323.36s-23.8-6.89-31.2,5.36c0,0-2.81-16.6-10.21-20.68,0,0-.77,10.98-8.17,19.15,0,0-10.72,22.21,8.17,25.02,0,0-22.47,63.83,19.91,82.72,0,0,39.83,9.19,62.55-7.4s14.04-51.06,14.04-51.06c0,0-6.38-23.23-12.26-31.4,0,0,16.34-9.19,2.81-28.85,0,0-9.45-8.94-5.62-15.06,0,0-12.77,2.3-13.02,22.98,0,0-13.93-9.96-27.01-.77Z"/>
    <path class="cls-7" d="M138.12,323.36s-23.8-6.89-31.2,5.36c0,0-2.81-16.6-10.21-20.68,0,0-.77,10.98-8.17,19.15,0,0-10.72,22.21,8.17,25.02,0,0-22.47,63.83,19.91,82.72,0,0,39.83,9.19,62.55-7.4s14.04-51.06,14.04-51.06c0,0-6.38-23.23-12.26-31.4,0,0,16.34-9.19,2.81-28.85,0,0-9.45-8.94-5.62-15.06,0,0-12.77,2.3-13.02,22.98,0,0-13.93-9.96-27.01-.77Z"/>
    <path class="cls-15" d="M111.34,363.22c-4.01,.73-7.74,2.65-10.78,5.36-.98,.87-.96,2.66,0,3.54,1.05,.96,2.49,.93,3.54,0,.32-.28,.67-.54,.98-.82-.09,.08-.39,.29-.12,.1,.11-.08,.22-.16,.32-.24,.17-.12,.35-.25,.53-.36,.73-.49,1.5-.93,2.29-1.31,.19-.09,.39-.18,.58-.27,.1-.04,.2-.08,.29-.13-.11,.05-.46,.19-.15,.07,.4-.15,.8-.3,1.21-.44,.86-.28,1.75-.5,2.64-.66,1.29-.23,2.14-1.87,1.75-3.08-.45-1.38-1.69-2-3.08-1.75h0Z"/>
    <path class="cls-15" d="M168.84,362.72c1.06-.09,2.11-.06,3.17,.07l-.66-.09c.92,.13,1.84,.33,2.72,.62,.22,.07,.43,.15,.64,.23,.09,.04,.19,.07,.28,.11,.42,.16-.39-.18-.11-.05,.43,.2,.86,.41,1.28,.65,1.14,.64,2.78,.31,3.42-.9s.32-2.74-.9-3.42c-2.97-1.67-6.44-2.49-9.84-2.22-.67,.05-1.28,.24-1.77,.73-.43,.43-.76,1.15-.73,1.77,.06,1.26,1.1,2.61,2.5,2.5h0Z"/>
    <path class="cls-1" d="M138.12,323.36s13.14-8.85,27.01,.77c0,0,8.26,6.89,0,15.23,0,0-3.13,14.98,3.67,18.89,0,0-10.22,2.21-12.09-4.94,0,0-2.04,20.26-15.66,18.55,0,0,5.96-3.4,5.79-19.23,0,0-3.26,12.94-20.43,14.13,0,0-5.96,.33-11.23,2.55,0,0,3.91-4.59,8.34-7.14s7.15-9.36,7.15-9.36c0,0-6.13,6.47-17.87,6.13s-14.47,1.81-14.78,2.02c0,0-.01,0,0,0,.34-.55,6.49-7.83,12.58-10.7,10.06-4.74-1.17-12.47-1.17-12.47,0,0-4.45-3.87-2.49-9.06s15.52-10.3,31.2-5.36Z"/>
    <path class="cls-4" d="M136.65,264.83s-3.19-.96-3.7,15.38c0,0-3.04,6.96-.64,11.11,0,0-4.33,11.72-1.01,14.85,0,0-3.18,5.67-1.68,12.15,0,.04,.04,.08,.04,.13,.04,.72-3.08,6.83-.6,11.12,2.59,4.48,15.2,5.13,17.91,1.38s.09-11.29-2.02-13.2c0,0,.8-8.08-2.72-13.01,0,0,2.97-5.63-.91-12.13,0,0,3.12-5.4-.64-11.63,0,0,.57-14.41-4.03-16.15Z"/>
    <ellipse class="cls-11" cx="112.53" cy="386.93" rx="7.4" ry="11.74" transform="translate(-55.74 20.79) rotate(-8.47)"/>
    <ellipse class="cls-11" cx="172.02" cy="382.59" rx="7.4" ry="11.74"/>
    <ellipse class="cls-9" cx="113.62" cy="383.94" rx="2.78" ry="5.23" transform="translate(-55.29 20.91) rotate(-8.47)"/>
    <ellipse class="cls-9" cx="170.27" cy="379.78" rx="2.78" ry="5.23"/>
    <path class="cls-3" d="M129.77,402.13s8.94-5.23,28.98-2.55c0,0,16.98-3.7,11.52,16.09,0,0,6.99,21.13-9.1,23.74-16.17,2.63-28.32,2.92-28.34,2.55,0,0-12.26,1.28-12.13-19.91,0,0-12.13-19.15,9.06-19.91Z"/>
    <path class="cls-10" d="M132.16,408.78c-.99-.5-2.05-.63-3.14-.39-.95,.2-1.9,.76-2.55,1.5-1.32,1.5-1.88,3.77-1.19,5.68,.13,.37,.34,.69,.69,.9,.32,.19,.8,.27,1.16,.15,.72-.23,1.33-1.06,1.05-1.85-.09-.25-.16-.51-.2-.78l.05,.4c-.05-.4-.05-.8,0-1.2l-.05,.4c.03-.2,.07-.4,.12-.6,.03-.1,.06-.19,.09-.29,.02-.05,.03-.1,.05-.14,.06-.14,.04-.09-.06,.15,.09-.15,.15-.32,.24-.47,.05-.09,.11-.17,.16-.25,.14-.21-.26,.3,0,.01,.14-.15,.3-.28,.44-.42-.27,.28-.18,.14-.06,.06,.08-.06,.17-.11,.25-.16s.18-.08,.26-.13c-.25,.1-.3,.12-.16,.07,.05-.02,.09-.03,.14-.05,.18-.06,.37-.1,.56-.13l-.4,.05c.28-.04,.56-.04,.84,0l-.4-.05c.15,.02,.3,.05,.44,.09,.07,.02,.13,.04,.2,.07,.11,.04,.04,.01-.2-.08,.04,.02,.08,.04,.13,.06,.7,.35,1.66,.21,2.05-.54,.36-.68,.21-1.68-.54-2.05h0Z"/>
    <path class="cls-10" d="M158.38,408.38s.5-.31,.51-.29c0,0-.35,.13-.04,.02,.08-.03,.15-.05,.23-.08,.09-.03,.19-.05,.29-.07,.05-.01,.1-.02,.14-.03,.12-.02,.06-.01-.16,.02,.07,.04,.4-.03,.49-.03,.1,0,.2,0,.29,0,.05,0,.1,0,.15,.01,.12,.01,.07,0-.16-.02,.03,.04,.41,.09,.48,.1,.09,.03,.19,.06,.28,.09,.32,.1-.29-.15,0,0,.16,.08,.31,.16,.46,.26,.05,.03,.13,.12,.19,.13-.17-.13-.21-.16-.12-.09,.04,.03,.07,.06,.1,.09,.12,.11,.24,.24,.35,.36,.15,.18,.01,.06-.03-.05,.03,.07,.11,.16,.16,.23,.09,.14,.17,.29,.25,.44,.1,.22,0,.06-.02-.06,.01,.08,.07,.18,.09,.26,.05,.16,.09,.33,.12,.49,.05,.25-.02,.04,0-.08,0,.08,.02,.19,.02,.28,0,.18,0,.37-.02,.55-.08,.78,.74,1.53,1.5,1.5,.88-.04,1.42-.66,1.5-1.5,.2-2.03-.89-4.04-2.56-5.15-1.76-1.16-4.25-1.13-6.01,0-.66,.42-.99,1.35-.54,2.05,.43,.66,1.35,.99,2.05,.54h0Z"/>
    <path class="cls-10" d="M127.85,428.54c4.2,3.27,9.62,3.88,14.78,3.56,2.83-.18,5.67-.53,8.47-.93,2.64-.37,5.27-.9,7.73-1.95s4.64-2.62,6.21-4.79c.38-.52-.49-1.02-.86-.5-2.86,3.96-7.8,5.43-12.41,6.15-2.66,.41-5.35,.73-8.04,.95s-5.28,.28-7.88-.17-5.19-1.38-7.3-3.02c-.5-.39-1.21,.31-.71,.71h0Z"/>
    <path class="cls-2" d="M72.55,485.93s-14.32,1.35-18.38,9.52,5.25,17.61,7.4,18.38,7.64,3.96,15.83-1.28,5.85-21.21-4.85-26.62Z"/>
    <path class="cls-2" d="M218.08,486s9.42-.64,16.34,9.45c0,0,2.4,14.55-10.21,19.66,0,0-6.53,4.34-17.62-3.32,0,0-6.92-20.17,11.49-25.79Z"/>
    <path class="cls-8" d="M144.78,510.51c0-14.5,0-29,0-43.5v-12.25c0-.64-1-.64-1,0,0,14.5,0,29,0,43.5v12.25c0,.64,1,.64,1,0h0Z"/>
    <path class="cls-2" d="M116.13,509.16s.53,3.64,.34,6.15c0,0,2.06,8.13,13.53,8.21s14.29-4.85,14.29-4.85c0,0,2.71,5.47,13.31,5.39,0,0,9.12,1.39,12.89-6.1,0,0,1.18-1.66,1.84-7.06,0,0-16.41,4.53-28.15,.36,0,0-10.36,3.78-28.05-2.11Z"/>
    <path class="cls-10" d="M113.63,499.91c-1.89-10.62-2.08-21.45-1.37-32.19,.21-3.2,.51-6.39,.85-9.58,.07-.64-.93-.63-1,0-1.2,11-1.73,22.12-.67,33.15,.29,2.98,.69,5.94,1.22,8.88,.11,.63,1.08,.36,.96-.27h0Z"/>
    <path class="cls-8" d="M174.91,499.92c.8-3.69,1.7-7.35,2.11-11.11,.29-2.67,.43-5.35,.53-8.03,.14-3.83,.2-7.66,0-11.49-.22-4.3-.76-8.58-1.72-12.77-.14-.63-1.11-.36-.96,.27,1.71,7.43,1.97,15.05,1.73,22.64-.15,4.72-.38,9.46-1.3,14.1-.41,2.05-.9,4.09-1.35,6.13-.14,.63,.83,.9,.96,.27h0Z"/>
  </g>
</svg>