<?xml version="1.0" encoding="UTF-8"?>
<svg id="Rainbow" xmlns="http://www.w3.org/2000/svg" viewBox="0 0 596.11 595.53">
  <defs>
    <style>
      .cls-1 {
        fill: #fffef5;
      }

      .cls-2 {
        fill: #6bcce0;
      }

      .cls-3 {
        fill: #ed2024;
      }

      .cls-4 {
        fill: #f7ec13;
      }

      .cls-5 {
        fill: #9051a0;
      }

      .cls-6 {
        fill: #f37421;
      }

      .cls-7 {
        fill: #3a53a4;
      }

      .cls-8 {
        fill: #6abd45;
      }
    </style>
  </defs>
  <path class="cls-3" d="M263.52,304.74s5.44-32.55,35.22-32.19c29.78,.36,34.92,33.36,34.92,33.36l-10.52,1.53-12.84-23.33h-23.16l-19.38,21.8-4.24-1.17Z"/>
  <path class="cls-6" d="M266.14,303.66s4.45-26.51,31.66-28.4c27.21-1.89,34.15,32.91,34.15,32.91l-5.5-2.25s-10.46-17.85-10.64-18.12-16.77-2.89-16.77-2.89l-15.51,4.06-13.7,16.86-3.7-2.16Z"/>
  <path class="cls-4" d="M268.75,301.76s5.44-23.26,29.05-23.89c23.6-.63,30.18,24.47,30.18,24.47l-3.25,2.4-9.65-15.69-17.29-4.24-14.62,4.96-12.8,14.24-1.62-2.25Z"/>
  <path class="cls-8" d="M271.19,301.85s5.17-20.65,26.61-21.91c21.44-1.26,28.74,23.98,28.74,23.98l-4.69,.63-13.79-14.97-10.26-2.16-12.37,3.34-13.43,13.79-.81-2.7Z"/>
  <path class="cls-2" d="M272.72,303.57s6-21.17,24.7-21.45c.13,0,.25,0,.38,0,19.01,0,26.13,19.83,26.13,19.83l-2.07,2.52-7.39-9.74-10.01-6.04-8.38-1.26-7.03,2.43-9.47,7.48-5.32,7.12-1.53-.9Z"/>
  <path class="cls-7" d="M274.34,304.2s4.42-14.24,15.69-18.48c11.27-4.24,19.38,1.26,19.38,1.26,0,0,9.56,4.6,12.71,16.41,3.16,11.81-1.98,1.44-1.98,1.44l-3.97-7.3-6.67-7.03-7.57-2.61-7.21-.18-6.67,2.89-5.32,3.79-7.03,10.46-1.35-.63Z"/>
  <path class="cls-5" d="M299.05,286.17s-16.14-.72-22.72,17.76c-6.58,18.48,1.98,.36,1.98,.36,0,0,5.05-15.96,20.74-16.05s19.83,19.2,19.83,19.2l1.8-3.16s-5.05-17.76-21.64-18.12Z"/>
  <path class="cls-1" d="M258.47,307.8s1.44-7.57,6.85-4.24c0,0,4.06-7.21,8.93-.27,0,0,5.77-2.07,6.94,5.59,0,0,4.42,.81,3.79,6.22s-5.5,4.33-5.5,4.33c0,0,.18,3.16-3.07,4.96s-6.13-1.71-6.13-1.71c0,0-1.35,3.01-5.68,2.23-4.33-.78-3.88-5.11-3.88-5.11,0,0-5.14,0-5.95-5.68-.81-5.68,3.7-6.31,3.7-6.31Z"/>
  <path class="cls-1" d="M314.1,307.8s1.44-7.57,6.85-4.24c0,0,4.06-7.21,8.93-.27,0,0,5.77-2.07,6.94,5.59,0,0,4.42,.81,3.79,6.22-.63,5.41-5.5,4.33-5.5,4.33,0,0,.18,3.16-3.07,4.96-3.25,1.8-6.13-1.71-6.13-1.71,0,0-1.35,3.01-5.68,2.23-4.33-.78-3.88-5.11-3.88-5.11,0,0-5.14,0-5.95-5.68s3.7-6.31,3.7-6.31Z"/>
</svg>