<?xml version="1.0" encoding="UTF-8"?>
<svg id="Rainbow" xmlns="http://www.w3.org/2000/svg" viewBox="0 0 595.93 595.46">
  <defs>
    <style>
      .cls-1 {
        fill: #fffef5;
      }

      .cls-2 {
        fill: #6bcce0;
      }

      .cls-3 {
        fill: #ed2024;
      }

      .cls-4 {
        fill: #f7ec13;
      }

      .cls-5 {
        fill: #9051a0;
      }

      .cls-6 {
        fill: #f37421;
      }

      .cls-7 {
        fill: #3a53a4;
      }

      .cls-8 {
        fill: #6abd45;
      }
    </style>
  </defs>
  <path class="cls-3" d="M183.94,200.13s20.55-122.89,133-121.53,131.85,125.96,131.85,125.96l-39.7,5.79-48.49-88.1h-87.46l-73.19,82.31-16-4.43Z"/>
  <path class="cls-6" d="M193.81,196.04s16.81-100.09,119.56-107.23,128.95,124.26,128.95,124.26l-20.77-8.51s-39.49-67.4-40.17-68.43-63.32-10.89-63.32-10.89l-58.55,15.32-51.74,63.66-13.96-8.17Z"/>
  <path class="cls-4" d="M203.68,188.89s20.56-87.83,109.68-90.21,113.98,92.38,113.98,92.38l-12.26,9.07-36.43-59.23-65.29-16-55.22,18.72-48.34,53.79-6.13-8.51Z"/>
  <path class="cls-8" d="M212.87,189.23s19.54-77.96,100.49-82.72,108.53,90.55,108.53,90.55l-17.7,2.38-52.09-56.51-38.74-8.17-46.71,12.6-50.72,52.09-3.06-10.21Z"/>
  <path class="cls-2" d="M218.66,195.7s22.64-79.94,93.28-81.01c.47,0,.95-.01,1.43-.01,71.76,0,98.66,74.89,98.66,74.89l-7.83,9.53-27.91-36.77-37.79-22.81-31.66-4.77-26.55,9.19-35.74,28.26-20.09,26.89-5.79-3.4Z"/>
  <path class="cls-7" d="M224.79,198.08s16.68-53.79,59.23-69.79,73.19,4.77,73.19,4.77c0,0,36.09,17.36,48,61.96s-7.49,5.45-7.49,5.45l-14.98-27.57-25.19-26.55-28.6-9.87-27.23-.68-25.19,10.89-20.09,14.3-26.55,39.49-5.11-2.38Z"/>
  <path class="cls-5" d="M318.06,130s-60.94-2.72-85.79,67.06c-24.85,69.79,7.49,1.36,7.49,1.36,0,0,19.06-60.26,78.3-60.6s74.89,72.51,74.89,72.51l6.81-11.91s-19.06-67.06-81.7-68.43Z"/>
  <path class="cls-1" d="M164.87,211.7s5.45-28.6,25.87-16c0,0,15.32-27.23,33.7-1.02,0,0,21.79-7.83,26.21,21.11,0,0,16.68,3.06,14.3,23.49s-20.77,16.34-20.77,16.34c0,0,.68,11.91-11.57,18.72s-23.15-6.47-23.15-6.47c0,0-5.11,11.37-21.45,8.41s-14.64-19.3-14.64-19.3c0,0-19.4,0-22.47-21.45s13.96-23.83,13.96-23.83Z"/>
  <path class="cls-1" d="M374.91,211.7s5.45-28.6,25.87-16c0,0,15.32-27.23,33.7-1.02,0,0,21.79-7.83,26.21,21.11,0,0,16.68,3.06,14.3,23.49s-20.77,16.34-20.77,16.34c0,0,.68,11.91-11.57,18.72s-23.15-6.47-23.15-6.47c0,0-5.11,11.37-21.45,8.41s-14.64-19.3-14.64-19.3c0,0-19.4,0-22.47-21.45-3.06-21.45,13.96-23.83,13.96-23.83Z"/>
</svg>