<?xml version="1.0" encoding="UTF-8"?>
<svg id="Rainbow" xmlns="http://www.w3.org/2000/svg" viewBox="0 0 596.11 595.53">
  <defs>
    <style>
      .cls-1 {
        fill: #fffef5;
      }

      .cls-2 {
        fill: #6bcce0;
      }

      .cls-3 {
        fill: #ed2024;
      }

      .cls-4 {
        fill: #f7ec13;
      }

      .cls-5 {
        fill: #9051a0;
      }

      .cls-6 {
        fill: #f37421;
      }

      .cls-7 {
        fill: #3a53a4;
      }

      .cls-8 {
        fill: #6abd45;
      }
    </style>
  </defs>
  <path class="cls-3" d="M281.67,301.3s2.6-15.57,16.85-15.4c14.25,.17,16.7,15.96,16.7,15.96l-5.03,.73-6.14-11.16h-11.08l-9.27,10.43-2.03-.56Z"/>
  <path class="cls-6" d="M282.92,300.78s2.13-12.68,15.15-13.59,16.34,15.74,16.34,15.74l-2.63-1.08s-5-8.54-5.09-8.67-8.02-1.38-8.02-1.38l-7.42,1.94-6.56,8.07-1.77-1.04Z"/>
  <path class="cls-4" d="M284.17,299.88s2.6-11.13,13.9-11.43,14.44,11.7,14.44,11.7l-1.55,1.15-4.61-7.5-8.27-2.03-7,2.37-6.12,6.81-.78-1.08Z"/>
  <path class="cls-8" d="M285.34,299.92s2.48-9.88,12.73-10.48,13.75,11.47,13.75,11.47l-2.24,.3-6.6-7.16-4.91-1.04-5.92,1.6-6.43,6.6-.39-1.29Z"/>
  <path class="cls-2" d="M286.07,300.74s2.87-10.13,11.82-10.26c.06,0,.12,0,.18,0,9.09,0,12.5,9.49,12.5,9.49l-.99,1.21-3.54-4.66-4.79-2.89-4.01-.6-3.36,1.16-4.53,3.58-2.54,3.41-.73-.43Z"/>
  <path class="cls-7" d="M286.85,301.04s2.11-6.81,7.5-8.84,9.27,.6,9.27,.6c0,0,4.57,2.2,6.08,7.85s-.95,.69-.95,.69l-1.9-3.49-3.19-3.36-3.62-1.25-3.45-.09-3.19,1.38-2.54,1.81-3.36,5-.65-.3Z"/>
  <path class="cls-5" d="M298.66,292.41s-7.72-.35-10.87,8.5,.95,.17,.95,.17c0,0,2.42-7.63,9.92-7.68s9.49,9.19,9.49,9.19l.86-1.51s-2.42-8.5-10.35-8.67Z"/>
  <path class="cls-1" d="M279.25,302.77s.69-3.62,3.28-2.03c0,0,1.94-3.45,4.27-.13,0,0,2.76-.99,3.32,2.67,0,0,2.11,.39,1.81,2.98s-2.63,2.07-2.63,2.07c0,0,.09,1.51-1.47,2.37s-2.93-.82-2.93-.82c0,0-.65,1.44-2.72,1.07s-1.85-2.45-1.85-2.45c0,0-2.46,0-2.85-2.72s1.77-3.02,1.77-3.02Z"/>
  <path class="cls-1" d="M305.87,302.77s.69-3.62,3.28-2.03c0,0,1.94-3.45,4.27-.13,0,0,2.76-.99,3.32,2.67,0,0,2.11,.39,1.81,2.98s-2.63,2.07-2.63,2.07c0,0,.09,1.51-1.47,2.37s-2.93-.82-2.93-.82c0,0-.65,1.44-2.72,1.07s-1.85-2.45-1.85-2.45c0,0-2.46,0-2.85-2.72s1.77-3.02,1.77-3.02Z"/>
</svg>